# xmcd CD database file
#
# Track frame offsets:
#	150
#	19909
#	32251
#	50141
#	61162
#	71184
#	81198
#	100138
#	115602
#	126121
#
# Disc length: 1820 seconds
#
# Revision: 4
# Processed by: cddbd v1.5.1PL2 Copyright (c) Steve Scherf et al.
# Submitted via: CDex 1.51
#
DISCID=80071a0a
DTITLE=J.J Cale - 8
DYEAR=1983
DGENRE=Blues
TTITLE0=Money Talks
TTITLE1=Losers
TTITLE2=Hard Times
TTITLE3=Reality
TTITLE4=Takin' Care Of Business
TTITLE5=People Lie
TTITLE6=Unemployment
TTITLE7=Trouble In The City
TTITLE8=Teardrops In My Tequila
TTITLE9=Livin' Here Too
EXTD=YEAR: 1983
EXTT0=
EXTT1=
EXTT2=
EXTT3=
EXTT4=
EXTT5=
EXTT6=
EXTT7=
EXTT8=
EXTT9=
PLAYORDER=
